<svg xmlns="http://www.w3.org/2000/svg" viewBox="0 0 100 100" width="512" height="512">
  <defs>
    <linearGradient id="bg" x1="0%" y1="0%" x2="100%" y2="100%">
      <stop offset="0%" stop-color="#6474F0"/>
      <stop offset="100%" stop-color="#9B5CF6"/>
    </linearGradient>
  </defs>

  <!-- Rounded square background -->
  <rect width="100" height="100" rx="22" ry="22" fill="url(#bg)"/>

  <!-- Outer shield outline -->
  <path
    d="M50 10
       C62 10 84 18 84 22
       C86 26 88 34 88 47
       C88 72 68 86 50 94
       C32 86 12 72 12 47
       C12 34 14 26 16 22
       C16 18 38 10 50 10Z"
    fill="none"
    stroke="white"
    stroke-width="2.8"
    stroke-linejoin="round"
  />

  <!-- Inner shield outline (inset ~7 units) -->
  <path
    d="M50 18
       C60 18 79 25 79 28
       C81 31 82 38 82 47
       C82 68 64 80 50 87
       C36 80 18 68 18 47
       C18 38 19 31 21 28
       C21 25 40 18 50 18Z"
    fill="none"
    stroke="white"
    stroke-width="2.8"
    stroke-linejoin="round"
  />

  <!-- Checkmark -->
  <polyline
    points="32,53 44,65 68,41"
    fill="none"
    stroke="white"
    stroke-width="5.5"
    stroke-linecap="round"
    stroke-linejoin="round"
  />
</svg>
